<svg width="24" height="24" viewBox="0 0 24 24" fill="none" xmlns="http://www.w3.org/2000/svg">
<path d="M22 10.6219C22 6.13794 17.484 2.46094 12 2.46094C6.516 2.46094 2 6.10594 2 10.6219C2 14.6219 5.548 17.9769 10.355 18.6219C10.677 18.6539 11.129 18.8479 11.225 19.1059C11.323 19.3319 11.258 19.7509 11.258 20.0089C11.258 20.0089 11.129 20.7509 11.129 20.8799C11.097 21.1059 10.935 21.8799 12 21.3639C13.032 20.9129 17.742 17.9439 19.871 15.5579C21.323 14.0089 22 12.3959 22 10.6219ZM8.452 12.9769C8.4483 13.0272 8.42667 13.0744 8.39106 13.11C8.35545 13.1456 8.30823 13.1672 8.258 13.1709H5.452C5.419 13.1709 5.355 13.1379 5.322 13.1379C5.29 13.1059 5.29 13.0419 5.29 13.0089V8.62194C5.29 8.52494 5.387 8.42894 5.484 8.42894H6.161C6.258 8.42894 6.355 8.52494 6.355 8.62194V12.0739H8.258C8.355 12.0739 8.452 12.1709 8.452 12.2669V12.9769ZM10.129 12.9769C10.1253 13.0272 10.1037 13.0744 10.0681 13.11C10.0324 13.1456 9.98523 13.1672 9.935 13.1709H9.258C9.20795 13.167 9.16097 13.1453 9.12556 13.1097C9.09016 13.0741 9.06867 13.027 9.065 12.9769V8.62194C9.065 8.52494 9.161 8.42894 9.258 8.42894H9.935C10.032 8.42894 10.129 8.52494 10.129 8.62194V12.9769ZM15 12.9769C14.9963 13.0272 14.9747 13.0744 14.9391 13.11C14.9034 13.1456 14.8562 13.1672 14.806 13.1709H14.097C14.065 13.1709 14.065 13.1379 14.065 13.1379L12 10.4279V13.0089C11.9963 13.0592 11.9747 13.1064 11.9391 13.142C11.9034 13.1776 11.8562 13.1992 11.806 13.2029H11.129C11.0788 13.1992 11.0316 13.1776 10.9959 13.142C10.9603 13.1064 10.9387 13.0592 10.935 13.0089V8.65394C10.935 8.55794 11.032 8.46094 11.129 8.46094H11.807L11.839 8.49294L13.839 11.1709V8.58994C13.839 8.49294 13.935 8.39594 14.032 8.39594H14.806C14.903 8.39594 15 8.49294 15 8.58994V12.9769ZM18.871 9.33194C18.8671 9.38198 18.8453 9.42897 18.8098 9.46438C18.7742 9.49978 18.7271 9.52127 18.677 9.52494H16.774V10.2669H18.677C18.774 10.2669 18.871 10.3639 18.871 10.4609V11.1379C18.8673 11.1882 18.8457 11.2354 18.8101 11.271C18.7744 11.3066 18.7272 11.3282 18.677 11.3319H16.774V12.0089H18.677C18.774 12.0089 18.871 12.1059 18.871 12.2029V12.8799C18.8673 12.9302 18.8457 12.9774 18.8101 13.013C18.7744 13.0486 18.7272 13.0702 18.677 13.0739H15.871C15.839 13.0739 15.774 13.0419 15.741 13.0419C15.71 13.0089 15.71 12.9449 15.71 12.9119V8.55894C15.71 8.52594 15.742 8.46194 15.742 8.42894C15.774 8.39694 15.839 8.39694 15.871 8.39694H18.677C18.774 8.39694 18.871 8.49394 18.871 8.59094V9.33194Z" fill="#ffffff"/>
</svg>
