<svg width="135" height="34" viewBox="0 0 135 34" fill="none" xmlns="http://www.w3.org/2000/svg">
<path d="M52.968 28.444H54.456V32.188H52.968V28.444ZM49.812 24.976H57.732V26.2H49.812V24.976ZM48.444 31.708H59.124V32.968H48.444V31.708ZM49.5 29.536H58.164V30.772H49.5V29.536ZM51.732 25.684L53.268 26.044C53.116 26.308 52.956 26.576 52.788 26.848C52.628 27.12 52.468 27.376 52.308 27.616C52.148 27.848 52 28.056 51.864 28.24L50.688 27.88C50.808 27.68 50.936 27.452 51.072 27.196C51.208 26.94 51.332 26.68 51.444 26.416C51.564 26.144 51.66 25.9 51.732 25.684ZM49.296 27.352C49.968 27.336 50.74 27.324 51.612 27.316C52.492 27.3 53.416 27.284 54.384 27.268C55.36 27.244 56.324 27.224 57.276 27.208L57.216 28.396C56.28 28.436 55.336 28.472 54.384 28.504C53.432 28.528 52.524 28.552 51.66 28.576C50.796 28.6 50.028 28.62 49.356 28.636L49.296 27.352ZM54.924 26.704L55.98 26.008C56.284 26.224 56.6 26.468 56.928 26.74C57.264 27.004 57.58 27.276 57.876 27.556C58.18 27.828 58.424 28.08 58.608 28.312L57.48 29.092C57.32 28.86 57.096 28.604 56.808 28.324C56.528 28.044 56.22 27.764 55.884 27.484C55.556 27.196 55.236 26.936 54.924 26.704ZM52.968 22.036H54.456V23.716H52.968V22.036ZM48.468 22.804H59.064V25.324H57.588V24.112H49.884V25.324H48.468V22.804Z" fill="#343A3F"/>
<path d="M37.1641 26.98H40.5721V28.096H37.1641V26.98ZM36.5761 23.116H40.4521V24.328H36.5761V23.116ZM36.1681 25.144H42.0361V26.38H36.1681V25.144ZM37.9441 22.024H39.2761V25.756H37.9441V22.024ZM41.2081 22.324L42.5401 22.696C41.9481 24.184 41.1641 25.496 40.1881 26.632C39.2201 27.768 38.1121 28.688 36.8641 29.392C36.8081 29.296 36.7201 29.18 36.6001 29.044C36.4801 28.9 36.3561 28.76 36.2281 28.624C36.1001 28.488 35.9921 28.376 35.9041 28.288C37.1201 27.688 38.1801 26.876 39.0841 25.852C39.9961 24.828 40.7041 23.652 41.2081 22.324ZM38.4841 28.696H39.8401V31.948C39.8401 32.252 39.8041 32.496 39.7321 32.68C39.6601 32.864 39.5161 33.004 39.3001 33.1C39.0841 33.188 38.8321 33.244 38.5441 33.268C38.2641 33.292 37.9321 33.304 37.5481 33.304C37.5241 33.12 37.4721 32.912 37.3921 32.68C37.3121 32.448 37.2281 32.248 37.1401 32.08C37.3801 32.088 37.6121 32.092 37.8361 32.092C38.0601 32.092 38.2081 32.092 38.2801 32.092C38.3681 32.084 38.4241 32.068 38.4481 32.044C38.4721 32.02 38.4841 31.976 38.4841 31.912V28.696ZM40.2721 26.98H40.5721L40.8361 26.908L41.6041 27.532C41.3161 27.892 40.9801 28.256 40.5961 28.624C40.2201 28.992 39.8441 29.304 39.4681 29.56C39.3961 29.448 39.2881 29.32 39.1441 29.176C39.0081 29.032 38.8921 28.916 38.7961 28.828C38.9721 28.684 39.1561 28.52 39.3481 28.336C39.5401 28.144 39.7161 27.948 39.8761 27.748C40.0441 27.548 40.1761 27.368 40.2721 27.208V26.98ZM36.0721 29.812C36.5761 29.772 37.1521 29.728 37.8001 29.68C38.4561 29.632 39.1441 29.58 39.8641 29.524C40.5921 29.468 41.3081 29.408 42.0121 29.344V30.58C41.3401 30.644 40.6561 30.708 39.9601 30.772C39.2641 30.828 38.5961 30.884 37.9561 30.94C37.3161 30.996 36.7361 31.044 36.2161 31.084L36.0721 29.812ZM42.9721 24.22H47.3881V25.552H42.9721V24.22ZM43.1401 22.024L44.6041 22.252C44.4681 23.044 44.2921 23.82 44.0761 24.58C43.8601 25.332 43.6081 26.032 43.3201 26.68C43.0321 27.328 42.7001 27.892 42.3241 28.372C42.2521 28.276 42.1441 28.164 42.0001 28.036C41.8641 27.908 41.7201 27.78 41.5681 27.652C41.4161 27.524 41.2841 27.424 41.1721 27.352C41.5161 26.944 41.8161 26.46 42.0721 25.9C42.3281 25.332 42.5441 24.72 42.7201 24.064C42.8961 23.4 43.0361 22.72 43.1401 22.024ZM45.2521 25.024L46.7281 25.156C46.5521 26.524 46.2801 27.732 45.9121 28.78C45.5521 29.82 45.0521 30.716 44.4121 31.468C43.7721 32.22 42.9481 32.848 41.9401 33.352C41.8921 33.24 41.8201 33.1 41.7241 32.932C41.6281 32.764 41.5241 32.596 41.4121 32.428C41.3001 32.268 41.1961 32.14 41.1001 32.044C42.0121 31.636 42.7481 31.116 43.3081 30.484C43.8761 29.844 44.3121 29.072 44.6161 28.168C44.9201 27.256 45.1321 26.208 45.2521 25.024ZM43.7641 25.252C43.9321 26.268 44.1641 27.224 44.4601 28.12C44.7641 29.008 45.1641 29.792 45.6601 30.472C46.1561 31.144 46.7721 31.672 47.5081 32.056C47.4041 32.152 47.2881 32.272 47.1601 32.416C47.0321 32.568 46.9081 32.72 46.7881 32.872C46.6761 33.032 46.5841 33.18 46.5121 33.316C45.7041 32.828 45.0361 32.204 44.5081 31.444C43.9881 30.676 43.5681 29.788 43.2481 28.78C42.9281 27.772 42.6681 26.668 42.4681 25.468L43.7641 25.252Z" fill="#343A3F"/>
<path d="M31.32 29.248V31.504H30.144V29.248H31.32ZM33.432 28.228V33.304H32.136V28.228H33.432ZM35.208 30.904V31.984H29.028V30.904H35.208ZM34.896 28.78V29.896H29.652V28.78H34.896ZM26.328 29.836C26.48 29.932 26.64 30.048 26.808 30.184C26.976 30.312 27.132 30.444 27.276 30.58C27.42 30.708 27.54 30.828 27.636 30.94L26.676 31.588C26.596 31.476 26.484 31.352 26.34 31.216C26.204 31.08 26.056 30.944 25.896 30.808C25.736 30.664 25.58 30.536 25.428 30.424L26.328 29.836ZM28.644 28.84L28.86 28.804L29.628 29.164C29.38 29.916 29.036 30.564 28.596 31.108C28.164 31.652 27.66 32.104 27.084 32.464C26.516 32.824 25.896 33.108 25.224 33.316C25.184 33.22 25.116 33.108 25.02 32.98C24.924 32.852 24.824 32.724 24.72 32.596C24.616 32.468 24.524 32.372 24.444 32.308C25.076 32.14 25.652 31.912 26.172 31.624C26.7 31.328 27.152 30.968 27.528 30.544C27.912 30.112 28.196 29.604 28.38 29.02V28.84H28.644ZM27.708 28.276C27.396 28.86 26.988 29.392 26.484 29.872C25.98 30.352 25.456 30.744 24.912 31.048C24.856 30.976 24.772 30.888 24.66 30.784C24.556 30.672 24.448 30.564 24.336 30.46C24.232 30.348 24.136 30.26 24.048 30.196C24.576 29.94 25.064 29.62 25.512 29.236C25.968 28.852 26.32 28.428 26.568 27.964L27.708 28.276ZM33.444 23.464V27.508H32.112V23.464H33.444ZM31.356 23.464V27.508H30.168V23.464H31.356ZM29.4 23.464V27.508H28.212V23.464H29.4ZM27.468 23.464V27.508H26.172V23.464H27.468ZM34.956 26.968V28.096H24.648V26.968H34.956ZM35.1 25.012V26.164H24.42V25.012H35.1ZM28.788 28.84V29.776H25.728L26.664 28.84H28.788ZM34.572 23.068V24.196H25.524L26.64 23.068H34.572ZM27.768 22.252C27.472 22.748 27.132 23.224 26.748 23.68C26.372 24.136 25.924 24.564 25.404 24.964C25.284 24.82 25.12 24.668 24.912 24.508C24.704 24.34 24.52 24.212 24.36 24.124C24.832 23.82 25.24 23.476 25.584 23.092C25.928 22.708 26.2 22.34 26.4 21.988L27.768 22.252Z" fill="#343A3F"/>
<path d="M12.396 22.936H23.112V24.436H12.396V22.936ZM17.256 23.596H18.972V31.252C18.972 31.74 18.904 32.108 18.768 32.356C18.64 32.612 18.408 32.804 18.072 32.932C17.744 33.052 17.332 33.128 16.836 33.16C16.34 33.2 15.768 33.22 15.12 33.22C15.088 33.06 15.032 32.876 14.952 32.668C14.88 32.46 14.796 32.256 14.7 32.056C14.612 31.848 14.52 31.672 14.424 31.528C14.752 31.544 15.08 31.556 15.408 31.564C15.736 31.572 16.028 31.576 16.284 31.576C16.54 31.576 16.724 31.576 16.836 31.576C16.988 31.568 17.096 31.544 17.16 31.504C17.224 31.456 17.256 31.364 17.256 31.228V23.596Z" fill="#343A3F"/>
<path d="M7.044 22.192H8.496V24.808H7.044V22.192ZM4.536 24.22H11.208V25.54H4.536V24.22ZM5.22 26.248L6.48 26.008C6.6 26.4 6.708 26.808 6.804 27.232C6.9 27.648 6.988 28.068 7.068 28.492C7.148 28.916 7.212 29.32 7.26 29.704C7.308 30.088 7.336 30.432 7.344 30.736L5.964 31.048C5.956 30.744 5.932 30.4 5.892 30.016C5.852 29.624 5.8 29.216 5.736 28.792C5.672 28.36 5.596 27.928 5.508 27.496C5.42 27.056 5.324 26.64 5.22 26.248ZM8.856 25.912L10.356 26.14C10.276 26.652 10.184 27.176 10.08 27.712C9.984 28.24 9.88 28.764 9.768 29.284C9.664 29.796 9.556 30.284 9.444 30.748C9.332 31.204 9.22 31.612 9.108 31.972L7.788 31.732C7.9 31.356 8.008 30.928 8.112 30.448C8.216 29.968 8.316 29.468 8.412 28.948C8.508 28.428 8.592 27.908 8.664 27.388C8.744 26.868 8.808 26.376 8.856 25.912ZM3.984 31.396H11.4V32.752H3.984V31.396ZM0 28.12C0.384 28.04 0.812 27.948 1.284 27.844C1.756 27.74 2.256 27.624 2.784 27.496C3.312 27.368 3.832 27.24 4.344 27.112L4.512 28.42C3.808 28.612 3.092 28.804 2.364 28.996C1.636 29.188 0.972 29.356 0.372 29.5L0 28.12ZM0.264 24.316H4.2V25.648H0.264V24.316ZM1.716 22.024H3.12V31.78C3.12 32.132 3.08 32.404 3 32.596C2.928 32.788 2.788 32.94 2.58 33.052C2.38 33.156 2.128 33.224 1.824 33.256C1.528 33.296 1.168 33.312 0.744 33.304C0.728 33.12 0.68 32.904 0.6 32.656C0.52 32.408 0.436 32.188 0.348 31.996C0.588 32.004 0.816 32.012 1.032 32.02C1.248 32.02 1.396 32.02 1.476 32.02C1.636 32.02 1.716 31.94 1.716 31.78V22.024Z" fill="#343A3F"/>
<path d="M134.915 12.312C134.915 12.696 134.891 13.096 134.843 13.512H125.555C125.619 14.344 125.883 14.984 126.347 15.432C126.827 15.864 127.411 16.08 128.099 16.08C129.123 16.08 129.835 15.648 130.235 14.784H134.603C134.379 15.664 133.971 16.456 133.379 17.16C132.803 17.864 132.075 18.416 131.195 18.816C130.315 19.216 129.331 19.416 128.243 19.416C126.931 19.416 125.763 19.136 124.739 18.576C123.715 18.016 122.915 17.216 122.339 16.176C121.763 15.136 121.475 13.92 121.475 12.528C121.475 11.136 121.755 9.92001 122.315 8.88001C122.891 7.84001 123.691 7.04002 124.715 6.48002C125.739 5.92001 126.915 5.64001 128.243 5.64001C129.539 5.64001 130.691 5.91202 131.699 6.45602C132.707 7.00002 133.491 7.77602 134.051 8.78402C134.627 9.79202 134.915 10.968 134.915 12.312ZM130.715 11.232C130.715 10.528 130.475 9.96802 129.995 9.55201C129.515 9.13601 128.915 8.92802 128.195 8.92802C127.507 8.92802 126.923 9.12802 126.443 9.52802C125.979 9.92802 125.691 10.496 125.579 11.232H130.715Z" fill="black"/>
<path d="M116.129 8.06399C116.609 7.32799 117.209 6.75199 117.929 6.33599C118.649 5.90399 119.449 5.68799 120.329 5.68799V10.032H119.201C118.177 10.032 117.409 10.256 116.897 10.704C116.385 11.136 116.129 11.904 116.129 13.008V19.224H112.025V5.83199H116.129V8.06399Z" fill="black"/>
<path d="M102.84 19.416C101.528 19.416 100.344 19.136 99.2879 18.576C98.2479 18.016 97.4239 17.216 96.8159 16.176C96.2239 15.136 95.9279 13.92 95.9279 12.528C95.9279 11.152 96.2319 9.94402 96.8399 8.90402C97.4479 7.84802 98.2799 7.04002 99.3359 6.48002C100.392 5.92001 101.576 5.64001 102.888 5.64001C104.2 5.64001 105.384 5.92001 106.44 6.48002C107.496 7.04002 108.328 7.84802 108.936 8.90402C109.544 9.94402 109.848 11.152 109.848 12.528C109.848 13.904 109.536 15.12 108.912 16.176C108.304 17.216 107.464 18.016 106.392 18.576C105.336 19.136 104.152 19.416 102.84 19.416ZM102.84 15.864C103.624 15.864 104.288 15.576 104.832 15C105.392 14.424 105.672 13.6 105.672 12.528C105.672 11.456 105.4 10.632 104.856 10.056C104.328 9.48001 103.672 9.19202 102.888 9.19202C102.088 9.19202 101.424 9.48001 100.896 10.056C100.368 10.616 100.104 11.44 100.104 12.528C100.104 13.6 100.36 14.424 100.872 15C101.4 15.576 102.056 15.864 102.84 15.864Z" fill="black"/>
<path d="M88.4255 5.68799C90.0895 5.68799 91.4095 6.19199 92.3855 7.19999C93.3775 8.20799 93.8735 9.60799 93.8735 11.4V19.224H89.7935V11.952C89.7935 11.088 89.5615 10.424 89.0975 9.95999C88.6495 9.47999 88.0255 9.23999 87.2255 9.23999C86.4255 9.23999 85.7935 9.47999 85.3295 9.95999C84.8815 10.424 84.6575 11.088 84.6575 11.952V19.224H80.5775V11.952C80.5775 11.088 80.3455 10.424 79.8815 9.95999C79.4335 9.47999 78.8095 9.23999 78.0095 9.23999C77.2095 9.23999 76.5775 9.47999 76.1135 9.95999C75.6655 10.424 75.4415 11.088 75.4415 11.952V19.224H71.3375V5.83199H75.4415V7.51199C75.8575 6.95199 76.4015 6.51199 77.0735 6.19199C77.7455 5.85599 78.5055 5.68799 79.3535 5.68799C80.3615 5.68799 81.2575 5.90399 82.0415 6.33599C82.8415 6.76799 83.4655 7.38399 83.9135 8.18399C84.3775 7.44799 85.0095 6.84799 85.8095 6.38399C86.6095 5.91999 87.4815 5.68799 88.4255 5.68799Z" fill="black"/>
<path d="M64.7266 2.37598H68.9266L66.2386 8.80798H63.4786L64.7266 2.37598Z" fill="black"/>
<path d="M46.6857 12.504C46.6857 11.128 46.9417 9.92001 47.4537 8.88001C47.9817 7.84001 48.6937 7.04002 49.5897 6.48002C50.4857 5.92001 51.4857 5.64001 52.5897 5.64001C53.5337 5.64001 54.3577 5.83201 55.0617 6.21601C55.7817 6.60002 56.3337 7.10402 56.7177 7.72802V5.83202H60.8217V19.224H56.7177V17.328C56.3177 17.952 55.7577 18.456 55.0377 18.84C54.3337 19.224 53.5097 19.416 52.5657 19.416C51.4777 19.416 50.4857 19.136 49.5897 18.576C48.6937 18 47.9817 17.192 47.4537 16.152C46.9417 15.096 46.6857 13.88 46.6857 12.504ZM56.7177 12.528C56.7177 11.504 56.4297 10.696 55.8537 10.104C55.2937 9.51201 54.6057 9.21602 53.7897 9.21602C52.9737 9.21602 52.2777 9.51201 51.7017 10.104C51.1417 10.68 50.8617 11.48 50.8617 12.504C50.8617 13.528 51.1417 14.344 51.7017 14.952C52.2777 15.544 52.9737 15.84 53.7897 15.84C54.6057 15.84 55.2937 15.544 55.8537 14.952C56.4297 14.36 56.7177 13.552 56.7177 12.528Z" fill="black"/>
<path d="M44.5275 1.46399V19.224H40.4235V1.46399H44.5275Z" fill="black"/>
<path d="M35.4094 4.44C34.6894 4.44 34.0974 4.232 33.6334 3.816C33.1854 3.384 32.9614 2.856 32.9614 2.232C32.9614 1.592 33.1854 1.064 33.6334 0.648C34.0974 0.216 34.6894 0 35.4094 0C36.1134 0 36.6894 0.216 37.1374 0.648C37.6014 1.064 37.8334 1.592 37.8334 2.232C37.8334 2.856 37.6014 3.384 37.1374 3.816C36.6894 4.232 36.1134 4.44 35.4094 4.44ZM37.4494 5.832V19.224H33.3454V5.832H37.4494Z" fill="black"/>
<path d="M16.2404 12.504C16.2404 11.128 16.4964 9.92001 17.0084 8.88001C17.5364 7.84001 18.2484 7.04002 19.1444 6.48002C20.0404 5.92001 21.0404 5.64001 22.1444 5.64001C23.0884 5.64001 23.9124 5.83201 24.6164 6.21601C25.3364 6.60002 25.8884 7.10402 26.2724 7.72802V5.83202H30.3764V19.224H26.2724V17.328C25.8724 17.952 25.3124 18.456 24.5924 18.84C23.8884 19.224 23.0644 19.416 22.1204 19.416C21.0324 19.416 20.0404 19.136 19.1444 18.576C18.2484 18 17.5364 17.192 17.0084 16.152C16.4964 15.096 16.2404 13.88 16.2404 12.504ZM26.2724 12.528C26.2724 11.504 25.9844 10.696 25.4084 10.104C24.8484 9.51201 24.1604 9.21602 23.3444 9.21602C22.5284 9.21602 21.8324 9.51201 21.2564 10.104C20.6964 10.68 20.4164 11.48 20.4164 12.504C20.4164 13.528 20.6964 14.344 21.2564 14.952C21.8324 15.544 22.5284 15.84 23.3444 15.84C24.1604 15.84 24.8484 15.544 25.4084 14.952C25.9844 14.36 26.2724 13.552 26.2724 12.528Z" fill="black"/>
<path d="M11.436 10.584C12.412 10.792 13.196 11.28 13.788 12.048C14.38 12.8 14.676 13.664 14.676 14.64C14.676 16.048 14.18 17.168 13.188 18C12.212 18.816 10.844 19.224 9.08396 19.224H1.23596V2.37598H8.81996C10.532 2.37598 11.868 2.76798 12.828 3.55198C13.804 4.33598 14.292 5.39998 14.292 6.74398C14.292 7.73598 14.028 8.55998 13.5 9.21598C12.988 9.87198 12.3 10.328 11.436 10.584ZM5.33996 9.19198H8.02796C8.69996 9.19198 9.21196 9.04798 9.56396 8.75998C9.93196 8.45598 10.116 8.01598 10.116 7.43998C10.116 6.86398 9.93196 6.42398 9.56396 6.11998C9.21196 5.81598 8.69996 5.66398 8.02796 5.66398H5.33996V9.19198ZM8.36396 15.912C9.05196 15.912 9.57996 15.76 9.94796 15.456C10.332 15.136 10.524 14.68 10.524 14.088C10.524 13.496 10.324 13.032 9.92396 12.696C9.53996 12.36 9.00396 12.192 8.31596 12.192H5.33996V15.912H8.36396Z" fill="black"/>
</svg>
